<svg width="80" height="70" viewBox="0 0 80 70" fill="none" xmlns="http://www.w3.org/2000/svg">
<path d="M45 17.7975C45 22.3801 43.4197 26.7749 40.6066 30.0153C37.7936 33.2556 33.9782 35.076 30 35.076C26.0218 35.076 22.2064 33.2556 19.3934 30.0153C16.5804 26.7749 15 22.3801 15 17.7975C15 13.215 16.5804 8.82014 19.3934 5.57979C22.2064 2.33945 26.0218 0.519043 30 0.519043C33.9782 0.519043 37.7936 2.33945 40.6066 5.57979C43.4197 8.82014 45 13.215 45 17.7975ZM0 63.8735C0 69.633 5 69.633 5 69.633H55C55 69.633 60 69.633 60 63.8735C60 58.114 55 40.8355 30 40.8355C5 40.8355 0 58.114 0 63.8735ZM67.5 17.2792C74.435 9.07189 91.775 23.4418 67.5 41.9125C43.23 23.4418 60.565 9.07189 67.5 17.2849V17.2792Z" fill="#FF543E"/>
</svg>
