<svg width="80" height="71" viewBox="0 0 80 71" fill="none" xmlns="http://www.w3.org/2000/svg">
<path d="M4.7999 0.699951H75.1999C77.6199 0.699951 79.5999 2.65745 79.5999 5.04995V65.95C79.5999 68.3425 77.6199 70.2999 75.1999 70.2999H4.7999C2.3799 70.2999 0.399902 68.3425 0.399902 65.95V5.04995C0.399902 2.65745 2.3799 0.699951 4.7999 0.699951ZM70.7999 61.5999V22.45H9.1999V61.5999H70.7999ZM13.5999 26.7999V31.15H26.7999V26.7999H13.5999ZM31.1999 26.7999V39.8499H66.3999V26.7999H31.1999ZM13.5999 44.2V48.5499H26.7999V44.2H13.5999ZM31.1999 44.2V57.25H66.3999V44.2H31.1999Z" fill="#077EA3"/>
</svg>
