<svg width="63" height="85" viewBox="0 0 63 85" fill="none" xmlns="http://www.w3.org/2000/svg">
<path d="M50.9887 31.1666C50.9887 35.0893 49.8254 38.9238 47.6461 42.1854C45.4668 45.447 42.3693 47.9891 38.7452 49.4902C35.1212 50.9913 31.1333 51.3841 27.2861 50.6188C23.4388 49.8536 19.9048 47.9646 17.1311 45.1909C14.3573 42.4171 12.4684 38.8832 11.7031 35.0359C10.9379 31.1886 11.3306 27.2008 12.8318 23.5767C14.3329 19.9527 16.875 16.8551 20.1366 14.6758C23.3981 12.4965 27.2327 11.3333 31.1553 11.3333C36.4136 11.3392 41.4549 13.4307 45.1731 17.1489C48.8912 20.8671 50.9827 25.9083 50.9887 31.1666ZM62.322 31.1666C62.3228 35.7588 61.3072 40.2942 59.3481 44.4475C57.389 48.6007 54.535 52.2689 50.9907 55.1889V82.1665C50.9907 82.6495 50.8673 83.1244 50.6321 83.5462C50.3969 83.968 50.0579 84.3227 49.6471 84.5766C49.2363 84.8306 48.7674 84.9753 48.2849 84.997C47.8025 85.0187 47.3225 84.9168 46.8905 84.7009L31.155 76.8343L15.4247 84.7007C14.9927 84.9168 14.5127 85.0188 14.0302 84.9971C13.5477 84.9755 13.0787 84.8308 12.6679 84.5769C12.257 84.323 11.9179 83.9683 11.6827 83.5464C11.4475 83.1245 11.3241 82.6495 11.3241 82.1665V55.1923C7.27502 51.85 4.1361 47.5387 2.19881 42.6588C0.261523 37.7789 -0.411322 32.4886 0.242751 27.2791C0.896823 22.0696 2.85661 17.1098 5.94013 12.8603C9.02366 8.61077 13.1309 5.20928 17.8806 2.97164C22.6303 0.734005 27.8684 -0.267222 33.1085 0.0609272C38.3487 0.389076 43.4209 2.03596 47.8544 4.84867C52.2878 7.66137 55.9386 11.5487 58.4679 16.1497C60.9972 20.7507 62.3229 25.9162 62.322 31.1666ZM56.6553 31.1666C56.6553 26.1232 55.1598 21.193 52.3578 16.9996C49.5558 12.8062 45.5733 9.53776 40.9138 7.60773C36.2543 5.6777 31.1271 5.17271 26.1806 6.15663C21.234 7.14056 16.6904 9.56919 13.1242 13.1354C9.55792 16.7017 7.12929 21.2453 6.14536 26.1918C5.16144 31.1383 5.66643 36.2655 7.59646 40.925C9.52649 45.5845 12.7949 49.5671 16.9883 52.3691C21.1818 55.171 26.1119 56.6666 31.1553 56.6666C37.916 56.659 44.3976 53.9699 49.1781 49.1894C53.9587 44.4089 56.6477 37.9273 56.6553 31.1666Z" fill="#00550E"/>
</svg>
